<svg width="100" height="100" viewBox="0 0 100 100" fill="none" xmlns="http://www.w3.org/2000/svg">
<g id="logo-safari 1" clip-path="url(#clip0_34_2)">
<g id="Group">
<g id="Vector" filter="url(#filter0_d_34_2)">
<path d="M50 97.6562C76.7513 97.6562 98.4375 75.97 98.4375 49.2188C98.4375 22.4675 76.7513 0.78125 50 0.78125C23.2487 0.78125 1.5625 22.4675 1.5625 49.2188C1.5625 75.97 23.2487 97.6562 50 97.6562Z" fill="url(#paint0_linear_34_2)"/>
</g>
<path id="Vector_2" d="M50 94.0234C74.7449 94.0234 94.8047 73.9637 94.8047 49.2188C94.8047 24.4738 74.7449 4.41406 50 4.41406C25.2551 4.41406 5.19531 24.4738 5.19531 49.2188C5.19531 73.9637 25.2551 94.0234 50 94.0234Z" fill="url(#paint1_radial_34_2)"/>
<g id="Group_2">
<path id="Vector_3" d="M50.0758 15.3125C49.7731 15.3125 49.5082 15.0855 49.5082 14.7828V6.87383C49.5082 6.57109 49.7731 6.34414 50.0758 6.34414C50.3786 6.34414 50.6434 6.57109 50.6434 6.87383V14.7828C50.6055 15.0855 50.3786 15.3125 50.0758 15.3125Z" fill="#F3F3F3"/>
<path id="Vector_4" d="M50.0758 15.3504C49.7352 15.3504 49.4703 15.0855 49.4703 14.7828V6.87383C49.4703 6.57109 49.7352 6.30625 50.0758 6.30625C50.4164 6.30625 50.6813 6.57109 50.6813 6.87383V14.7828C50.6813 15.0855 50.3785 15.3504 50.0758 15.3504ZM50.0758 6.38164C49.811 6.38164 49.5461 6.60898 49.5461 6.87383V14.7828C49.5461 15.0477 49.7731 15.275 50.0758 15.275C50.3406 15.275 50.6055 15.0477 50.6055 14.7828V6.87383C50.568 6.60898 50.3406 6.38164 50.0758 6.38164Z" fill="white"/>
<path id="Vector_5" d="M53.8601 11.0742C53.5574 11.0363 53.3304 10.8094 53.3304 10.5066L53.5953 6.98711C53.6328 6.68477 53.898 6.45742 54.2008 6.49531C54.5035 6.5332 54.7304 6.76055 54.7304 7.06328L54.4656 10.5824C54.4277 10.8852 54.1629 11.1117 53.8601 11.0742Z" fill="#F3F3F3"/>
<path id="Vector_6" d="M53.8602 11.1121C53.5196 11.0742 53.2926 10.8094 53.2926 10.5066L53.5574 6.98711C53.5953 6.68477 53.8602 6.41992 54.2008 6.45742C54.541 6.49531 54.7684 6.76055 54.7684 7.06289L54.5035 10.5824C54.4657 10.923 54.2008 11.15 53.8602 11.1121ZM54.2008 6.5332C53.936 6.5332 53.6707 6.72266 53.6707 6.9875L53.4059 10.507C53.4059 10.7715 53.5953 10.9988 53.8981 11.0363C54.1629 11.0363 54.4278 10.8473 54.4278 10.5824L54.6926 7.06289C54.6926 6.79805 54.466 6.57109 54.2008 6.5332Z" fill="white"/>
<path id="Vector_7" d="M56.6984 15.9937C56.3953 15.918 56.2062 15.6531 56.2441 15.3504L57.7957 7.59258C57.8715 7.29023 58.1363 7.10078 58.4391 7.17656C58.7418 7.25234 58.9309 7.51719 58.893 7.81992L57.3414 15.5777C57.3035 15.8422 57.0008 16.0316 56.698 15.9937H56.6984Z" fill="#F3F3F3"/>
<path id="Vector_8" d="M56.6985 16.0316C56.3574 15.9559 56.1684 15.6531 56.2063 15.3504L57.7578 7.59258C57.8336 7.29023 58.1363 7.06289 58.4766 7.13867C58.8172 7.21445 59.0067 7.51719 58.9688 7.81992L57.4172 15.5777C57.3414 15.8801 57.0387 16.0695 56.6985 16.0316ZM58.4766 7.21445C58.2117 7.17656 57.9469 7.32773 57.8711 7.59297L56.3199 15.3508C56.282 15.6152 56.4332 15.8801 56.736 15.9562C57.0008 15.9937 57.2656 15.8422 57.3414 15.5773L58.893 7.81992C58.9309 7.51719 58.7418 7.29023 58.4766 7.21445Z" fill="white"/>
<path id="Vector_9" d="M61.2391 12.5879C61.167 12.5705 61.0991 12.5391 61.0391 12.4955C60.9792 12.4518 60.9285 12.3968 60.8899 12.3335C60.8512 12.2702 60.8254 12.2 60.814 12.1267C60.8025 12.0535 60.8056 11.9787 60.8231 11.9066L61.7692 8.50117C61.8445 8.19844 62.1473 8.04687 62.45 8.12266C62.7528 8.19844 62.9422 8.50117 62.8664 8.80391L61.9203 12.2098C61.8446 12.5121 61.5418 12.6637 61.2391 12.5879Z" fill="#F3F3F3"/>
<path id="Vector_10" d="M61.239 12.6258C60.9363 12.55 60.7094 12.2094 60.823 11.907L61.7691 8.50078C61.8445 8.19844 62.1851 8.00898 62.4879 8.08477C62.7906 8.16055 63.0176 8.50117 62.9043 8.80352L61.9582 12.2098C61.8824 12.5121 61.5797 12.7016 61.2394 12.6258H61.239ZM62.4879 8.19844C62.223 8.12266 61.9203 8.27422 61.8445 8.53906L60.8988 11.9445C60.823 12.2094 60.9742 12.4746 61.2769 12.55C61.5418 12.6258 61.8445 12.4746 61.9203 12.2098L62.8664 8.80352C62.9043 8.53906 62.7531 8.27422 62.4879 8.19805V8.19844Z" fill="white"/>
<path id="Vector_11" d="M63.0934 17.9238C62.7906 17.8102 62.6774 17.4695 62.7906 17.2047L65.818 9.90117C65.9313 9.63633 66.2723 9.48477 66.5367 9.63633C66.8399 9.74961 66.9535 10.0906 66.8399 10.3551L63.8125 17.6586C63.6992 17.9238 63.3582 18.075 63.0938 17.9238H63.0934Z" fill="#F3F3F3"/>
<path id="Vector_12" d="M63.0934 17.9617C62.948 17.9063 62.8305 17.7955 62.7666 17.6536C62.7028 17.5117 62.6978 17.3503 62.7527 17.2047L65.7801 9.90117C65.8938 9.59844 66.2344 9.48476 66.575 9.59844C66.7204 9.65385 66.8379 9.76465 66.9018 9.90656C66.9656 10.0485 66.9706 10.2099 66.9156 10.3555L63.8883 17.659C63.7367 17.9617 63.3961 18.1129 63.0934 17.9617ZM66.5371 9.67422C66.2723 9.56094 65.9695 9.67422 65.8559 9.93906L62.8285 17.2426C62.7152 17.5074 62.8664 17.7723 63.1313 17.8859C63.3961 17.9992 63.6988 17.8859 63.8125 17.6211L66.8399 10.3176C66.9156 10.0902 66.802 9.7875 66.5371 9.67422Z" fill="white"/>
<path id="Vector_13" d="M68.2023 15.502C67.9371 15.3504 67.8234 15.0477 67.9371 14.7828L69.5265 11.6422C69.6777 11.377 69.9804 11.2633 70.2836 11.4148C70.5484 11.5664 70.6617 11.8691 70.5484 12.1336L68.9586 15.2746C68.8074 15.5395 68.5047 15.6535 68.2019 15.502H68.2023Z" fill="#F3F3F3"/>
<path id="Vector_14" d="M68.2023 15.5398C67.8992 15.3883 67.7859 15.0477 67.9371 14.7449L69.5265 11.6043C69.6777 11.3012 70.0187 11.1879 70.3211 11.3391C70.6238 11.4906 70.7375 11.8312 70.5859 12.134L68.9969 15.2746C68.8453 15.5773 68.5047 15.691 68.2019 15.5395L68.2023 15.5398ZM70.2836 11.4148C70.0183 11.3016 69.7156 11.377 69.6023 11.6418L68.0129 14.7828C67.8996 15.0098 68.0129 15.3125 68.2398 15.4641C68.5047 15.5773 68.8074 15.502 68.9211 15.2371L70.5105 12.0961C70.6238 11.8691 70.5105 11.5664 70.2836 11.4148Z" fill="white"/>
<path id="Vector_15" d="M68.959 21.1023C68.6941 20.9133 68.6184 20.5727 68.8074 20.3457L73.1973 13.7988C73.3484 13.534 73.6895 13.4961 73.9539 13.6477C74.2191 13.8367 74.2945 14.1773 74.1055 14.4043L69.7156 20.9512C69.5644 21.216 69.2238 21.2918 68.959 21.1023Z" fill="#F3F3F3"/>
<path id="Vector_16" d="M68.959 21.1402C68.6942 20.9512 68.6184 20.5727 68.77 20.3078L73.1594 13.7609C73.3485 13.4961 73.6891 13.4203 73.9918 13.6098C74.2567 13.7988 74.3324 14.1773 74.1813 14.4422L69.7914 20.9891C69.6024 21.2539 69.2239 21.3293 68.959 21.1402ZM73.9539 13.6855C73.7274 13.534 73.3864 13.5719 73.2352 13.7988L68.8453 20.3457C68.6942 20.5723 68.7696 20.8754 68.9969 21.0266C69.2239 21.1781 69.5645 21.1402 69.7157 20.9133L74.1055 14.4043C74.2567 14.1773 74.1813 13.8367 73.9539 13.6855Z" fill="white"/>
<path id="Vector_17" d="M74.4836 19.7023C74.257 19.5129 74.1812 19.1723 74.3703 18.9453L76.5652 16.1828C76.7543 15.9563 77.0949 15.918 77.3219 16.1074C77.5492 16.2965 77.6246 16.6371 77.4352 16.8641L75.2406 19.6266C75.0516 19.8535 74.7105 19.8914 74.4836 19.7023Z" fill="#F3F3F3"/>
<path id="Vector_18" d="M74.4461 19.7402C74.1812 19.5508 74.1433 19.1723 74.3328 18.9074L76.5273 16.1453C76.7164 15.8801 77.0949 15.8422 77.3597 16.0695C77.6246 16.2586 77.6625 16.6371 77.473 16.902L75.2785 19.6645C75.0894 19.9293 74.7109 19.9672 74.4461 19.7402ZM77.284 16.1449C77.0574 15.9559 76.7543 15.9938 76.5652 16.2207L74.3703 18.9832C74.2191 19.2102 74.257 19.5129 74.4836 19.702C74.7109 19.8914 75.0136 19.8535 75.2027 19.6266L77.3976 16.8641C77.5492 16.6371 77.5109 16.2965 77.2844 16.1453L77.284 16.1449Z" fill="white"/>
<path id="Vector_19" d="M74.1055 25.3785C73.8786 25.1516 73.8786 24.8109 74.1055 24.6215L79.7059 19.059C79.9332 18.832 80.2735 18.8695 80.4629 19.059C80.652 19.248 80.6899 19.6266 80.4629 19.8156L74.9004 25.3785C74.6731 25.6055 74.3325 25.6055 74.1055 25.3785Z" fill="#F3F3F3"/>
<path id="Vector_20" d="M74.0676 25.4164C73.9584 25.3054 73.8973 25.1559 73.8973 25.0002C73.8973 24.8445 73.9584 24.695 74.0676 24.584L79.668 19.0211C79.779 18.9118 79.9286 18.8506 80.0844 18.8506C80.2402 18.8506 80.3897 18.9118 80.5008 19.0211C80.6099 19.1321 80.6711 19.2816 80.6711 19.4373C80.6711 19.593 80.6099 19.7425 80.5008 19.8535L74.9 25.416C74.789 25.5252 74.6395 25.5863 74.4838 25.5863C74.3281 25.5863 74.1786 25.5256 74.0676 25.4164ZM80.4629 19.059C80.2738 18.8695 79.9332 18.8695 79.7441 19.059L74.1434 24.6215C73.9539 24.8109 73.9539 25.1516 74.1434 25.3406C74.3324 25.5301 74.673 25.5301 74.8621 25.3406L80.4629 19.7781C80.652 19.5887 80.652 19.2859 80.4629 19.059Z" fill="white"/>
<path id="Vector_21" d="M79.7816 25.0758C79.5925 24.8488 79.5925 24.5082 79.8195 24.3187L82.5062 22.0484C82.7332 21.8594 83.0738 21.8969 83.2633 22.1242C83.4523 22.3512 83.4523 22.6918 83.2254 22.8809L80.5386 25.1516C80.3113 25.3406 79.9707 25.3027 79.7816 25.0758Z" fill="#F3F3F3"/>
<path id="Vector_22" d="M79.7438 25.1137C79.5168 24.8488 79.5547 24.4703 79.7816 24.2813L82.4684 22.0105C82.6953 21.7836 83.0738 21.8215 83.3008 22.0863C83.5281 22.3512 83.4902 22.7297 83.2633 22.9187L80.5762 25.1895C80.3496 25.416 79.9707 25.3785 79.7442 25.1137H79.7438ZM83.2254 22.1242C83.0359 21.8973 82.7332 21.8973 82.5067 22.0484L79.8195 24.3191C79.6305 24.5082 79.5926 24.8109 79.7816 25.0379C79.9707 25.2648 80.2738 25.2648 80.5004 25.1137L83.1875 22.843C83.4145 22.6539 83.4145 22.3512 83.2254 22.1242Z" fill="white"/>
<path id="Vector_23" d="M78.268 30.525C78.0789 30.2602 78.1547 29.9195 78.4196 29.768L85.0039 25.3785C85.2688 25.2269 85.6094 25.3027 85.7606 25.5301C85.95 25.7949 85.8742 26.1355 85.6094 26.2867L79.025 30.6762C78.7977 30.8277 78.4571 30.752 78.268 30.525Z" fill="#F3F3F3"/>
<path id="Vector_24" d="M78.2301 30.525C78.041 30.2602 78.1168 29.8816 78.3816 29.6926L84.966 25.3027C85.2309 25.1137 85.6094 25.1894 85.7984 25.4922C85.9879 25.757 85.9117 26.1355 85.6473 26.3242L79.0629 30.7145C78.7977 30.9039 78.4195 30.8277 78.2301 30.525ZM85.7227 25.568C85.5715 25.3406 85.2688 25.2648 85.0418 25.4164L78.457 29.8059C78.2305 29.9574 78.1543 30.2602 78.3438 30.525C78.4949 30.752 78.7977 30.8277 79.025 30.6766L85.6094 26.2867C85.8363 26.0977 85.8742 25.7945 85.7227 25.568Z" fill="white"/>
<path id="Vector_25" d="M83.9066 31.3199C83.755 31.0547 83.8308 30.7145 84.0957 30.5629L87.1609 28.8223C87.4257 28.6707 87.7664 28.7844 87.9175 29.0488C88.0691 29.3141 87.9933 29.6543 87.7285 29.8059L84.6632 31.5469C84.3984 31.698 84.0578 31.5848 83.9062 31.3195L83.9066 31.3199Z" fill="#F3F3F3"/>
<path id="Vector_26" d="M83.8688 31.3574C83.7172 31.0547 83.793 30.7141 84.0578 30.5629L87.1231 28.8223C87.3879 28.6707 87.7664 28.7844 87.9176 29.0488C88.0692 29.352 87.9934 29.6926 87.7285 29.8437L84.6633 31.5848C84.3985 31.7359 84.0199 31.6223 83.8688 31.3574ZM87.8797 29.0871C87.7285 28.8223 87.4258 28.7465 87.1988 28.8977L84.1336 30.6387C83.9067 30.7898 83.8309 31.0926 83.9442 31.3195C84.0957 31.5844 84.3985 31.6602 84.6254 31.509L87.6906 29.768C87.9176 29.6547 87.9934 29.352 87.8797 29.0871Z" fill="white"/>
<path id="Vector_27" d="M81.3711 36.3527C81.2578 36.05 81.3711 35.7473 81.6738 35.634L88.9773 32.6066C89.2422 32.493 89.5828 32.6441 89.6961 32.909C89.8098 33.2117 89.6961 33.5144 89.3933 33.6277L82.0902 36.6551C81.825 36.7687 81.4848 36.6551 81.3711 36.3527Z" fill="#F3F3F3"/>
<path id="Vector_28" d="M81.3332 36.3902C81.2199 36.0879 81.3332 35.7473 81.6359 35.5957L88.9394 32.5684C89.085 32.5135 89.2463 32.5186 89.3881 32.5824C89.5299 32.6462 89.6407 32.7637 89.6961 32.909C89.8097 33.2117 89.6961 33.5523 89.3933 33.7035L82.0902 36.7309C81.9447 36.7858 81.7833 36.7809 81.6414 36.7171C81.4995 36.6534 81.3887 36.5356 81.3332 36.3902ZM89.6207 32.9469C89.507 32.682 89.2043 32.5684 88.9773 32.6441L81.6738 35.6715C81.409 35.7848 81.2953 36.0879 81.409 36.3527C81.5222 36.6176 81.825 36.7312 82.0523 36.6555L89.3554 33.6281C89.6207 33.5148 89.7344 33.2117 89.6207 32.9469Z" fill="white"/>
<path id="Vector_29" d="M86.7067 38.2449C86.5934 37.9418 86.7445 37.6394 87.0473 37.5258L90.3774 36.4281C90.6422 36.3148 90.9828 36.5039 91.0586 36.7687C91.1719 37.0715 91.0207 37.3742 90.718 37.4879L87.3879 38.5855C87.1231 38.6988 86.8203 38.5476 86.7067 38.2445V38.2449Z" fill="#F3F3F3"/>
<path id="Vector_30" d="M86.6688 38.2824C86.5555 37.9797 86.7066 37.6391 87.0477 37.5258L90.3773 36.4281C90.6801 36.3148 91.0207 36.5039 91.1344 36.807C91.2477 37.1094 91.0965 37.45 90.7555 37.5637L87.4258 38.6613C87.123 38.7367 86.7824 38.5852 86.6688 38.2824ZM91.0586 36.8449C90.9828 36.5797 90.6801 36.4281 90.4152 36.5039L87.0852 37.6016C86.8203 37.6769 86.7066 37.9797 86.7824 38.2449C86.8582 38.5098 87.1609 38.6609 87.4258 38.5852L90.7559 37.4879C91.0207 37.3746 91.1344 37.1098 91.0586 36.8449Z" fill="white"/>
<path id="Vector_31" d="M83.3012 42.748C83.2254 42.4453 83.4144 42.1426 83.7172 42.1047L91.475 40.591C91.7773 40.5152 92.0426 40.7422 92.118 41.0449C92.1937 41.3477 92.0047 41.6504 91.7019 41.6883L83.9441 43.202C83.6414 43.2398 83.3387 43.0508 83.3008 42.748H83.3012Z" fill="#F3F3F3"/>
<path id="Vector_32" d="M83.2254 42.748C83.1496 42.4074 83.3766 42.1047 83.6793 42.0289L91.4371 40.5152C91.7399 40.4394 92.0426 40.6668 92.118 41.0074C92.1938 41.3477 91.9668 41.6504 91.6641 41.7262L83.9063 43.2398C83.6039 43.3156 83.3008 43.0887 83.2254 42.7476V42.748ZM92.0426 41.0449C92.0047 40.7801 91.7399 40.591 91.475 40.6289L83.7172 42.1426C83.4524 42.1805 83.2633 42.4828 83.3387 42.748C83.3766 43.0129 83.6414 43.2019 83.9067 43.1641L91.6641 41.6504C91.9289 41.5746 92.118 41.3098 92.0426 41.0449Z" fill="white"/>
<path id="Vector_33" d="M88.1449 45.6617C88.1071 45.359 88.2961 45.0941 88.5989 45.0562L92.0801 44.6398C92.3828 44.6023 92.6481 44.8293 92.6856 45.132C92.7235 45.4348 92.5344 45.6996 92.2317 45.7375L88.75 46.1535C88.4852 46.1914 88.1828 45.9644 88.1449 45.6617Z" fill="#F3F3F3"/>
<path id="Vector_34" d="M88.107 45.6617C88.0692 45.3211 88.2961 45.0184 88.5988 44.9805L92.0801 44.5644C92.3828 44.5266 92.6856 44.7535 92.7235 45.0941C92.7613 45.4348 92.5344 45.7375 92.2317 45.7754L88.75 46.1914C88.4477 46.2293 88.1445 46.0023 88.107 45.6617ZM92.6856 45.132C92.6481 44.8672 92.3832 44.6398 92.118 44.6777L88.6367 45.0941C88.3719 45.132 88.1824 45.3969 88.2203 45.6617C88.2582 45.9266 88.5231 46.1539 88.7879 46.116L92.2695 45.6996C92.5344 45.6617 92.7231 45.3969 92.6856 45.132Z" fill="white"/>
<path id="Vector_35" d="M83.9066 49.3324C83.9066 49.0297 84.1332 48.7648 84.4363 48.7648H92.3453C92.648 48.7648 92.875 49.0297 92.875 49.3324C92.875 49.6352 92.648 49.9 92.3453 49.9H84.4363C84.1336 49.9 83.9066 49.6352 83.9066 49.3324Z" fill="#F3F3F3"/>
<path id="Vector_36" d="M83.8688 49.3324C83.8688 48.9918 84.1336 48.727 84.4363 48.727H92.3453C92.6481 48.727 92.9129 48.9918 92.9129 49.3324C92.9129 49.673 92.6481 49.9379 92.3453 49.9379H84.4363C84.1336 49.9379 83.8688 49.673 83.8688 49.3324ZM92.8371 49.3703C92.8371 49.1055 92.6102 48.8406 92.3449 48.8406H84.4367C84.1719 48.8406 83.9446 49.0672 83.9446 49.3703C83.9446 49.6352 84.1719 49.9 84.4367 49.9H92.3457C92.6106 49.8621 92.8371 49.6352 92.8371 49.3703Z" fill="white"/>
<path id="Vector_37" d="M88.107 53.1543C88.1445 52.8516 88.3719 52.6246 88.6746 52.6246L92.1941 52.8894C92.4965 52.9273 92.7234 53.1922 92.6855 53.4949C92.648 53.7976 92.4207 54.0246 92.118 54.0246L88.5988 53.7598C88.334 53.7219 88.107 53.457 88.107 53.1543Z" fill="#F3F3F3"/>
<path id="Vector_38" d="M88.0692 53.1543C88.107 52.8137 88.3719 52.5867 88.6746 52.5867L92.1942 52.8516C92.4965 52.8895 92.7613 53.1543 92.7235 53.4949C92.686 53.8356 92.4207 54.0625 92.118 54.0625L88.5988 53.7977C88.2961 53.7598 88.0692 53.457 88.0692 53.1543ZM92.686 53.4949C92.7235 53.2301 92.4965 52.9652 92.2317 52.9652L88.7121 52.7004C88.4477 52.7004 88.2203 52.8895 88.1824 53.1926C88.1449 53.457 88.3719 53.7219 88.6367 53.7219L92.1563 53.9867C92.4207 53.9867 92.6481 53.7602 92.686 53.4949Z" fill="white"/>
<path id="Vector_39" d="M83.2254 55.9168C83.3012 55.6141 83.566 55.4246 83.8688 55.4629L91.6262 57.0145C91.9289 57.0898 92.1184 57.3547 92.0426 57.6574C91.9668 57.9602 91.702 58.1496 91.3992 58.1117L83.6414 56.5602C83.3766 56.5223 83.1875 56.2195 83.2254 55.9168Z" fill="#F3F3F3"/>
<path id="Vector_40" d="M83.1875 55.9168C83.2633 55.5762 83.566 55.3871 83.8687 55.4246L91.6262 56.9766C91.9289 57.052 92.1558 57.3547 92.0801 57.6953C92.0047 58.0359 91.7019 58.2254 91.3992 58.1875L83.6414 56.6359C83.3387 56.5602 83.1496 56.2574 83.1875 55.9172V55.9168ZM92.0047 57.6953C92.0426 57.4305 91.8914 57.1656 91.6262 57.0898L83.8683 55.5383C83.6039 55.5008 83.3387 55.652 83.2629 55.9547C83.2254 56.2195 83.3766 56.4844 83.6418 56.5602L91.3992 58.1117C91.7019 58.1496 91.9289 57.9602 92.0047 57.6953Z" fill="white"/>
<path id="Vector_41" d="M86.6313 60.4578C86.6486 60.3858 86.68 60.3179 86.7237 60.258C86.7673 60.1981 86.8223 60.1474 86.8855 60.1087C86.9487 60.0701 87.0189 60.0443 87.0922 60.0328C87.1654 60.0213 87.2401 60.0244 87.3121 60.0418L90.718 60.9875C91.0207 61.0633 91.1719 61.3664 91.0965 61.6687C91.0792 61.7409 91.0478 61.8088 91.0042 61.8688C90.9605 61.9288 90.9055 61.9796 90.8422 62.0182C90.7789 62.0569 90.7087 62.0827 90.6354 62.0942C90.5621 62.1057 90.4873 62.1026 90.4152 62.0852L87.0094 61.1391C86.7066 61.0633 86.5559 60.7605 86.6313 60.4578Z" fill="#F3F3F3"/>
<path id="Vector_42" d="M86.593 60.4578C86.6688 60.1551 87.0094 59.9281 87.3121 60.0418L90.718 60.9875C91.0207 61.0633 91.2102 61.4039 91.1344 61.7066C91.0586 62.0094 90.718 62.2363 90.4153 62.123L87.0094 61.177C86.7067 61.1012 86.5172 60.7984 86.5934 60.4582L86.593 60.4578ZM91.0207 61.7066C91.0965 61.4418 90.945 61.1391 90.6801 61.0633L87.2743 60.1172C87.0094 60.0414 86.7446 60.193 86.6688 60.4957C86.5934 60.7605 86.7446 61.0633 87.0094 61.1391L90.4153 62.0852C90.6801 62.123 90.945 61.9719 91.0207 61.7066Z" fill="white"/>
<path id="Vector_43" d="M81.2953 62.2742C81.4086 61.9715 81.7496 61.8578 82.0141 61.9715L89.318 64.9988C89.5828 65.1121 89.734 65.4531 89.6207 65.7176C89.507 66.0207 89.1664 66.134 88.9016 66.0207L81.5981 62.9934C81.2953 62.8801 81.1816 62.5387 81.2953 62.2742Z" fill="#F3F3F3"/>
<path id="Vector_44" d="M81.2574 62.2363C81.3128 62.0909 81.4237 61.9734 81.5656 61.9096C81.7075 61.8457 81.8689 61.8407 82.0145 61.8957L89.318 64.923C89.6207 65.0367 89.734 65.3773 89.6207 65.718C89.5653 65.8634 89.4545 65.9809 89.3126 66.0447C89.1707 66.1086 89.0093 66.1136 88.8637 66.0586L81.5602 63.0313C81.2574 62.8797 81.1442 62.5391 81.2574 62.2363ZM89.5449 65.6801C89.6582 65.4152 89.5449 65.1125 89.2801 64.9988L81.9766 61.9715C81.7117 61.8582 81.4469 62.0094 81.3332 62.2742C81.2199 62.5391 81.3332 62.8418 81.5981 62.9555L88.9016 65.9828C89.1664 66.0586 89.4692 65.9449 89.5449 65.6801Z" fill="white"/>
<path id="Vector_45" d="M83.7551 67.3828C83.9066 67.118 84.209 67.0043 84.4738 67.118L87.6148 68.7074C87.8797 68.8207 87.9934 69.1613 87.8422 69.4641C87.6906 69.7289 87.3879 69.843 87.123 69.7289L83.9824 68.1398C83.7172 67.9883 83.6035 67.6477 83.7551 67.3828Z" fill="#F3F3F3"/>
<path id="Vector_46" d="M83.7172 67.3449C83.8687 67.0422 84.2094 66.9289 84.5121 67.0801L87.6527 68.6695C87.9555 68.8211 88.0691 69.1617 87.9176 69.4641C87.7664 69.7668 87.4254 69.8805 87.123 69.7289L83.9824 68.1398C83.6793 68.0266 83.566 67.6477 83.7172 67.3449ZM87.8043 69.4262C87.9176 69.1613 87.8418 68.8586 87.5769 68.7453L84.4363 67.1559C84.209 67.0426 83.9066 67.1559 83.7551 67.3828C83.6418 67.6477 83.7172 67.9504 83.982 68.0641L87.1226 69.6535C87.3879 69.7668 87.6906 69.6914 87.8043 69.4262Z" fill="white"/>
<path id="Vector_47" d="M78.1922 68.102C78.3816 67.8371 78.6844 67.7613 78.9492 67.9504L85.5336 72.3402C85.7984 72.4914 85.8363 72.8324 85.6852 73.0969C85.4957 73.3621 85.193 73.4375 84.9281 73.2484L78.3437 68.8586C78.0789 68.6695 78.0031 68.3289 78.1922 68.102Z" fill="#F3F3F3"/>
<path id="Vector_48" d="M78.1543 68.0641C78.3438 67.7992 78.7223 67.7234 78.9872 67.875L85.5715 72.2644C85.8364 72.4535 85.9121 72.7941 85.7227 73.0969C85.5336 73.3621 85.1551 73.4375 84.8907 73.2863L78.3059 68.8965C78.0032 68.7074 77.9653 68.3289 78.1543 68.0641ZM85.6094 73.059C85.7606 72.8324 85.7227 72.4914 85.4961 72.3402L78.9114 67.9504C78.6844 67.7992 78.3817 67.875 78.2301 68.1019C78.0789 68.3289 78.1168 68.6695 78.3434 68.8207L84.9282 73.2105C85.1551 73.3621 85.4579 73.2863 85.6094 73.0594V73.059Z" fill="white"/>
<path id="Vector_49" d="M79.5926 73.5891C79.7816 73.3617 80.1223 73.2863 80.3492 73.4758L83.1117 75.6324C83.3387 75.8215 83.3766 76.1621 83.1875 76.3895C82.9984 76.616 82.6578 76.6922 82.4305 76.5027L79.668 74.3457C79.4414 74.1566 79.4031 73.816 79.5926 73.5891Z" fill="#F3F3F3"/>
<path id="Vector_50" d="M79.5547 73.5512C79.7437 73.2863 80.1222 73.2484 80.3871 73.4379L83.1496 75.5945C83.4144 75.7836 83.4523 76.1621 83.2629 76.427C83.0738 76.6922 82.6953 76.7297 82.4308 76.5406L79.668 74.3836C79.4031 74.1945 79.3656 73.816 79.5547 73.5512ZM83.1875 76.3895C83.3765 76.1621 83.3387 75.8594 83.1117 75.6703L80.3492 73.5133C80.1222 73.3621 79.8195 73.4 79.6305 73.6266C79.441 73.8539 79.4789 74.1566 79.7058 74.3457L82.4683 76.5027C82.6953 76.6543 82.998 76.616 83.1871 76.3895H83.1875Z" fill="white"/>
<path id="Vector_51" d="M73.9539 73.2106C74.1813 72.9836 74.5219 72.9836 74.711 73.2106L80.3114 78.7731C80.5387 79.0004 80.5008 79.341 80.3114 79.5301C80.0848 79.757 79.7438 79.757 79.5547 79.5301L73.9539 73.9676C73.7649 73.7781 73.7649 73.3996 73.9539 73.2106Z" fill="#F3F3F3"/>
<path id="Vector_52" d="M73.9539 73.1727C74.0649 73.0634 74.2145 73.0022 74.3703 73.0022C74.5261 73.0022 74.6756 73.0634 74.7867 73.1727L80.3871 78.7352C80.4963 78.8462 80.5576 78.9958 80.5576 79.1516C80.5576 79.3074 80.4963 79.4569 80.3871 79.568C80.276 79.6771 80.1266 79.7383 79.9709 79.7383C79.8152 79.7383 79.6657 79.6771 79.5547 79.568L73.9539 74.0055C73.689 73.7781 73.689 73.4 73.9539 73.1727ZM80.3113 79.4922C80.5008 79.3031 80.5008 78.9625 80.3113 78.7734L74.7109 73.2106C74.5219 73.0215 74.1812 73.0215 73.9922 73.2106C73.8027 73.3996 73.8027 73.7402 73.9922 73.9293L79.5926 79.4922C79.7816 79.7195 80.0847 79.7195 80.3113 79.4922Z" fill="white"/>
<path id="Vector_53" d="M74.2945 78.8488C74.5219 78.6598 74.8621 78.6598 75.0515 78.8867L77.3601 81.5355C77.5488 81.7629 77.5113 82.1035 77.284 82.2926C77.0574 82.4816 76.7164 82.4816 76.5273 82.2547L74.2187 79.6059C74.0297 79.4168 74.0676 79.0762 74.2945 78.8488Z" fill="#F3F3F3"/>
<path id="Vector_54" d="M74.2571 78.8488C74.5219 78.6223 74.8625 78.6598 75.0891 78.8867L77.3977 81.5355C77.6246 81.7629 77.5867 82.141 77.3219 82.3684C77.0571 82.5953 76.7164 82.5574 76.4895 82.3305L74.1809 79.6816C73.9918 79.4168 73.9918 79.0383 74.2567 78.8488H74.2571ZM77.2844 82.2926C77.511 82.1035 77.511 81.8004 77.3598 81.5738L75.0512 78.9246C74.8621 78.7355 74.5594 78.6977 74.3324 78.8867C74.1055 79.0762 74.1055 79.3789 74.2567 79.6055L76.5653 82.2547C76.7543 82.4816 77.0574 82.4816 77.284 82.2926H77.2844Z" fill="white"/>
<path id="Vector_55" d="M68.8453 77.4109C69.1101 77.2219 69.4508 77.2977 69.6023 77.5625L73.9914 84.109C74.143 84.3738 74.0672 84.7145 73.8402 84.866C73.5754 85.0551 73.2348 84.9793 73.0832 84.7145L68.6937 78.1676C68.5422 77.9031 68.618 77.5621 68.8449 77.4109H68.8453Z" fill="#F3F3F3"/>
<path id="Vector_56" d="M68.8453 77.3731C69.1102 77.184 69.4887 77.2598 69.6777 77.5246L74.0676 84.0715C74.2566 84.3359 74.1809 84.7145 73.8785 84.9035C73.6133 85.093 73.2352 85.0172 73.0457 84.7523L68.6563 78.2055C68.4672 77.9031 68.543 77.5621 68.8453 77.3731ZM73.8406 84.8281C74.0676 84.6766 74.1434 84.3738 73.9918 84.1469L69.6024 77.6C69.4508 77.3734 69.1481 77.3352 68.8836 77.4867C68.6563 77.6379 68.5805 77.9406 68.732 78.168L73.1215 84.7145C73.2731 84.9035 73.6137 84.9793 73.8402 84.8277L73.8406 84.8281Z" fill="white"/>
<path id="Vector_57" d="M68.0508 83.0113C68.3156 82.8602 68.6562 82.9359 68.8074 83.2008L70.5484 86.266C70.6996 86.5309 70.5859 86.8715 70.3211 87.0227C70.0562 87.1742 69.7156 87.0984 69.5644 86.8336L67.8238 83.7684C67.7101 83.5035 67.7859 83.1629 68.0504 83.0117L68.0508 83.0113Z" fill="#F3F3F3"/>
<path id="Vector_58" d="M68.0508 82.9738C68.3535 82.8223 68.6942 82.898 68.8453 83.1629L70.586 86.2281C70.7375 86.493 70.6618 86.8715 70.3594 87.0227C70.0563 87.1742 69.7157 87.0984 69.5645 86.8336L67.8239 83.7684C67.6723 83.5035 67.7481 83.1629 68.0504 82.9738H68.0508ZM70.3211 86.9852C70.5485 86.8336 70.6617 86.5309 70.5106 86.3039L68.77 83.2387C68.6184 83.0117 68.3157 82.9359 68.0887 83.0492C67.8614 83.2008 67.7481 83.5035 67.8993 83.7305L69.6403 86.7957C69.7535 87.0227 70.0942 87.1367 70.3211 86.9852Z" fill="white"/>
<path id="Vector_59" d="M63.0176 80.5141C63.3203 80.4008 63.6231 80.5141 63.7367 80.7789L66.802 88.0824C66.9152 88.3473 66.7641 88.6879 66.4992 88.8012C66.2344 88.9148 65.8938 88.8012 65.7805 88.5363L62.7152 81.2332C62.6016 80.968 62.7527 80.6277 63.0176 80.5141Z" fill="#F3F3F3"/>
<path id="Vector_60" d="M63.0176 80.4762C63.3203 80.3629 63.6609 80.4762 63.8125 80.7789L66.8777 88.0824C66.9326 88.228 66.9275 88.3893 66.8637 88.5311C66.7998 88.6729 66.6824 88.7836 66.5371 88.8391C66.2344 88.9527 65.8937 88.8391 65.7426 88.5363L62.6773 81.2332C62.5637 80.968 62.7152 80.6277 63.0176 80.4762ZM66.4613 88.7637C66.7262 88.65 66.8398 88.3473 66.7262 88.1203L63.6609 80.8168C63.5476 80.552 63.2449 80.4383 62.9801 80.552C62.7152 80.6652 62.6012 80.968 62.7152 81.1953L65.7801 88.4988C65.9316 88.7637 66.1965 88.877 66.4613 88.7637Z" fill="white"/>
<path id="Vector_61" d="M61.1633 85.8875C61.4664 85.7742 61.7688 85.9254 61.8824 86.2281L62.9801 89.5582C63.0934 89.823 62.9043 90.1637 62.6395 90.2395C62.3367 90.3527 62.034 90.2016 61.9207 89.8988L60.823 86.5688C60.7098 86.3039 60.8609 86.0012 61.1637 85.8875H61.1633Z" fill="#F3F3F3"/>
<path id="Vector_62" d="M61.1258 85.8496C61.2713 85.7948 61.4327 85.7998 61.5745 85.8636C61.7163 85.9275 61.827 86.0449 61.8824 86.1902L62.9801 89.5203C63.0934 89.823 62.9043 90.1637 62.6012 90.2773C62.4557 90.3322 62.2943 90.3271 62.1525 90.2633C62.0107 90.1995 61.9 90.082 61.8445 89.9367L60.7473 86.6066C60.6715 86.3039 60.8231 85.9633 61.1258 85.8496ZM62.6016 90.2012C62.8664 90.1258 63.0176 89.823 62.9422 89.5582L61.8445 86.2281C61.7692 85.9633 61.4664 85.8496 61.2016 85.9254C60.9363 86.0012 60.7852 86.3039 60.861 86.5687L61.9582 89.8988C61.9775 89.9631 62.0101 90.0225 62.0539 90.0733C62.0977 90.1241 62.1517 90.1651 62.2124 90.1937C62.2731 90.2223 62.3391 90.2377 62.4061 90.2391C62.4732 90.2404 62.5398 90.2276 62.6016 90.2016V90.2012Z" fill="white"/>
<path id="Vector_63" d="M56.6984 82.4441C57.0008 82.3684 57.3039 82.5574 57.3414 82.8602L58.9308 90.618C59.0066 90.9203 58.7793 91.1855 58.4765 91.2609C58.1742 91.3367 57.8711 91.1477 57.8336 90.8449L56.2437 83.0871C56.2062 82.8223 56.3953 82.5195 56.698 82.4438L56.6984 82.4441Z" fill="#F3F3F3"/>
<path id="Vector_64" d="M56.6984 82.4059C57.0387 82.3305 57.3414 82.5574 57.4172 82.8602L59.0066 90.618C59.0824 90.9203 58.8551 91.2609 58.5523 91.2988C58.2117 91.3746 57.909 91.1477 57.8336 90.8449L56.2437 83.0871C56.1683 82.7844 56.3578 82.4816 56.698 82.4062L56.6984 82.4059ZM58.4765 91.223C58.7418 91.1855 58.9308 90.9203 58.893 90.6176L57.3035 82.8602C57.266 82.5953 56.9633 82.4063 56.698 82.4816C56.4332 82.5195 56.2441 82.7844 56.282 83.0871L57.8715 90.8449C57.9469 91.1098 58.2117 91.2609 58.4769 91.2234L58.4765 91.223Z" fill="white"/>
<path id="Vector_65" d="M53.8222 87.3633C54.125 87.3254 54.3898 87.5148 54.4656 87.8176L54.9195 91.2988C54.9574 91.6016 54.7304 91.8664 54.4273 91.9043C54.125 91.9422 53.8601 91.7531 53.7843 91.4504L53.3304 87.9687C53.2925 87.666 53.5195 87.4012 53.8222 87.3633Z" fill="#F3F3F3"/>
<path id="Vector_66" d="M53.8223 87.3254C54.1629 87.2879 54.4656 87.5148 54.5035 87.8176L54.9574 91.2988C54.9953 91.6016 54.7684 91.9043 54.4277 91.9422C54.0871 91.9801 53.7844 91.7531 53.7465 91.45L53.2926 87.9687C53.2547 87.666 53.4816 87.3633 53.8223 87.3254ZM54.3898 91.8664C54.6547 91.8289 54.882 91.5637 54.8441 91.2988L54.3898 87.8176C54.352 87.5527 54.0871 87.3633 53.8223 87.4012C53.5574 87.4391 53.3301 87.7039 53.368 87.9687L53.8223 91.4504C53.8602 91.7152 54.125 91.9043 54.3898 91.8664Z" fill="white"/>
<path id="Vector_67" d="M49.9246 83.125C50.2274 83.125 50.4922 83.3523 50.4922 83.6551V91.5637C50.4922 91.8664 50.2274 92.0937 49.9246 92.0937C49.6219 92.0937 49.3571 91.8664 49.3571 91.5637V83.6551C49.3949 83.3523 49.6219 83.125 49.9246 83.125Z" fill="#F3F3F3"/>
<path id="Vector_68" d="M49.9246 83.0871C50.2652 83.0871 50.5301 83.352 50.5301 83.6547V91.5637C50.5301 91.8664 50.2652 92.1313 49.9246 92.1313C49.584 92.1313 49.3192 91.8664 49.3192 91.5637V83.6551C49.3192 83.3524 49.6219 83.0871 49.9246 83.0871ZM49.9246 92.0559C50.1895 92.0559 50.4543 91.8289 50.4543 91.5637V83.6551C50.4543 83.3899 50.2274 83.1629 49.9246 83.1629C49.6598 83.1629 49.3949 83.3899 49.3949 83.6551V91.5637C49.4324 91.8289 49.6598 92.0559 49.9246 92.0559Z" fill="white"/>
<path id="Vector_69" d="M46.1402 87.3633C46.4429 87.4012 46.6699 87.6281 46.6699 87.9309L46.4051 91.4504C46.3676 91.7531 46.1023 91.9801 45.7996 91.9426C45.4968 91.9043 45.2699 91.6773 45.2699 91.3746L45.5347 87.8551C45.5726 87.5527 45.8375 87.3254 46.1402 87.3633Z" fill="#F3F3F3"/>
<path id="Vector_70" d="M46.1403 87.3254C46.4809 87.3633 46.7078 87.6281 46.7078 87.9309L46.443 91.4504C46.4051 91.7531 46.1403 92.018 45.7996 91.9801C45.4594 91.9422 45.2321 91.6773 45.2321 91.3746L45.4969 87.8551C45.5348 87.5148 45.7996 87.2879 46.1403 87.3254ZM45.7996 91.9043C46.0645 91.9043 46.3297 91.7152 46.3297 91.4504L46.5946 87.9309C46.5946 87.666 46.4051 87.4391 46.1024 87.4012C45.8375 87.4012 45.5727 87.5902 45.5727 87.8555L45.3078 91.3746C45.3078 91.6395 45.5344 91.8668 45.7996 91.9043Z" fill="white"/>
<path id="Vector_71" d="M43.3023 82.4441C43.6051 82.5195 43.7941 82.7844 43.7562 83.0871L42.2047 90.8449C42.1289 91.1477 41.8641 91.3371 41.5613 91.2609C41.2586 91.1855 41.0695 90.9207 41.1074 90.6176L42.659 82.8602C42.6969 82.5953 42.9996 82.4062 43.3023 82.4441Z" fill="#F3F3F3"/>
<path id="Vector_72" d="M43.3023 82.4059C43.6426 82.4816 43.832 82.7848 43.7941 83.0871L42.2426 90.8449C42.1668 91.1477 41.8641 91.3746 41.5238 91.2988C41.1832 91.2231 40.9937 90.9203 41.0316 90.6176L42.5832 82.8602C42.659 82.5574 42.9617 82.368 43.302 82.4063L43.3023 82.4059ZM41.5238 91.2231C41.7887 91.2609 42.0535 91.1098 42.1293 90.8449L43.6805 83.0871C43.7184 82.8223 43.5672 82.5574 43.2645 82.4816C42.9996 82.4441 42.7348 82.5953 42.659 82.8606L41.1074 90.6176C41.0695 90.9203 41.2586 91.1477 41.5238 91.2231Z" fill="white"/>
<path id="Vector_73" d="M38.7609 85.8496C39.064 85.9254 39.2531 86.2281 39.1773 86.5309L38.2312 89.9367C38.1558 90.2395 37.8531 90.3906 37.5504 90.3152C37.4783 90.2979 37.4103 90.2665 37.3503 90.2229C37.2903 90.1793 37.2396 90.1242 37.2009 90.061C37.1622 89.9977 37.1364 89.9274 37.1249 89.8541C37.1134 89.7809 37.1165 89.7061 37.134 89.634L38.0801 86.2281C38.1558 85.9254 38.4582 85.7742 38.7609 85.8496Z" fill="#F3F3F3"/>
<path id="Vector_74" d="M38.761 85.8121C39.0641 85.8875 39.291 86.2281 39.1774 86.5309L38.2313 89.9367C38.1559 90.2395 37.8153 90.4289 37.5125 90.3527C37.2098 90.2773 36.9828 89.9367 37.0961 89.634L38.0422 86.2281C38.118 85.9254 38.4207 85.7359 38.761 85.8117V85.8121ZM37.5125 90.2395C37.7774 90.3152 38.0801 90.1637 38.1559 89.8988L39.1016 86.493C39.1774 86.2281 39.0262 85.9633 38.7235 85.8875C38.4586 85.8117 38.1559 85.9633 38.0801 86.2281L37.134 89.634C37.0961 89.8988 37.2473 90.1637 37.5125 90.2395Z" fill="white"/>
<path id="Vector_75" d="M36.907 80.5141C37.2098 80.6273 37.3231 80.968 37.2098 81.2328L34.1824 88.5363C34.0692 88.8016 33.7281 88.9527 33.4637 88.8016C33.1984 88.65 33.0469 88.3473 33.1606 88.0824L36.1879 80.7789C36.3012 80.5141 36.6426 80.3625 36.907 80.5141Z" fill="#F3F3F3"/>
<path id="Vector_76" d="M36.907 80.4762C37.0524 80.5316 37.17 80.6424 37.2338 80.7843C37.2976 80.9262 37.3026 81.0876 37.2477 81.2332L34.2203 88.5363C34.1066 88.8391 33.766 88.9527 33.4254 88.8391C33.2801 88.7836 33.1627 88.6729 33.0988 88.5311C33.035 88.3893 33.0299 88.2279 33.0848 88.0824L36.1121 80.7789C36.2637 80.4762 36.6043 80.325 36.907 80.4762ZM33.4633 88.7637C33.7281 88.877 34.0309 88.7637 34.1445 88.4988L37.1719 81.1953C37.2852 80.9305 37.134 80.6652 36.8691 80.5519C36.6043 80.4387 36.3016 80.5519 36.1879 80.8168L33.1606 88.1203C33.0848 88.3473 33.1984 88.65 33.4633 88.7637Z" fill="white"/>
<path id="Vector_77" d="M31.7984 82.9359C32.0633 83.0871 32.1765 83.3898 32.0633 83.6547L30.4738 86.7957C30.3222 87.0605 30.0195 87.1742 29.7168 87.0227C29.4519 86.8715 29.3387 86.5687 29.4519 86.3039L31.0418 83.1633C31.193 82.898 31.4957 82.7844 31.7984 82.9359Z" fill="#F3F3F3"/>
<path id="Vector_78" d="M31.7984 82.8981C32.1012 83.0492 32.2144 83.3902 32.0633 83.6926L30.4738 86.8336C30.3223 87.1363 29.9816 87.25 29.6793 87.0984C29.3766 86.9473 29.2629 86.6063 29.4144 86.3039L31.0035 83.1633C31.1551 82.8602 31.4957 82.7469 31.7984 82.8981ZM29.7172 87.0231C29.982 87.1363 30.2848 87.0606 30.398 86.7957L31.9875 83.6551C32.1008 83.4277 31.9875 83.125 31.7605 82.9738C31.4957 82.8606 31.193 82.9359 31.0793 83.2008L29.4898 86.3414C29.3766 86.5688 29.4898 86.8719 29.7172 87.0231Z" fill="white"/>
<path id="Vector_79" d="M31.0414 77.3355C31.3063 77.5246 31.3821 77.8652 31.193 78.0922L26.8031 84.6391C26.652 84.9035 26.311 84.9414 26.0465 84.7902C25.7817 84.6008 25.7059 84.2605 25.8949 84.0332L30.2848 77.4863C30.436 77.2219 30.7766 77.1465 31.0414 77.3355Z" fill="#F3F3F3"/>
<path id="Vector_80" d="M31.0414 77.2973C31.3062 77.4867 31.382 77.8652 31.2304 78.1301L26.841 84.677C26.6519 84.9414 26.3113 85.0172 26.0086 84.8281C25.7437 84.6387 25.6679 84.2606 25.8191 83.9953L30.209 77.4488C30.398 77.184 30.7765 77.1082 31.0414 77.2973ZM26.0465 84.7523C26.273 84.9035 26.614 84.8656 26.7652 84.6391L31.155 78.0922C31.3062 77.8652 31.2308 77.5625 31.0035 77.4109C30.7765 77.2598 30.4359 77.2977 30.2847 77.5242L25.8949 84.0332C25.7437 84.2606 25.8191 84.6012 26.0465 84.7523Z" fill="white"/>
<path id="Vector_81" d="M25.5164 78.7356C25.7437 78.9246 25.8191 79.2652 25.6301 79.4922L23.4351 82.2547C23.2461 82.4816 22.9055 82.5195 22.6785 82.3305C22.4516 82.1414 22.3758 81.8008 22.5652 81.5734L24.7598 78.8109C24.9488 78.5844 25.2894 78.5461 25.5164 78.7356Z" fill="#F3F3F3"/>
<path id="Vector_82" d="M25.5543 78.6977C25.8192 78.8867 25.8571 79.2652 25.6676 79.5301L23.4731 82.2926C23.284 82.5574 22.9055 82.5953 22.6407 82.3684C22.3758 82.1789 22.3379 81.8008 22.5274 81.5355L24.7219 78.7734C24.911 78.5082 25.2895 78.4707 25.5543 78.6977ZM22.7164 82.2926C22.943 82.4816 23.2461 82.4441 23.4352 82.2168L25.6301 79.4543C25.7817 79.2277 25.7434 78.9246 25.5168 78.7355C25.2895 78.5461 24.9867 78.584 24.7977 78.8113L22.6028 81.5734C22.4516 81.8008 22.4899 82.141 22.7164 82.2926Z" fill="white"/>
<path id="Vector_83" d="M25.8949 73.0594C26.1219 73.2859 26.1219 73.627 25.8949 73.816L20.2945 79.3785C20.0672 79.6059 19.7269 79.568 19.5375 79.3785C19.3484 79.1895 19.3105 78.8109 19.5375 78.6219L25.1 73.0594C25.3273 72.832 25.668 72.832 25.8949 73.0594Z" fill="#F3F3F3"/>
<path id="Vector_84" d="M25.9328 73.0215C26.0419 73.1325 26.1029 73.2819 26.1029 73.4375C26.1029 73.5931 26.0419 73.7425 25.9328 73.8535L20.3321 79.4168C20.221 79.5258 20.0716 79.5869 19.916 79.5869C19.7604 79.5869 19.611 79.5258 19.5 79.4168C19.3908 79.3057 19.3295 79.1562 19.3295 79.0004C19.3295 78.8446 19.3908 78.695 19.5 78.584L25.1004 73.0215C25.2115 72.9123 25.3609 72.8512 25.5166 72.8512C25.6723 72.8512 25.8218 72.9123 25.9328 73.0215ZM19.5375 79.3785C19.7266 79.5676 20.0672 79.5676 20.2563 79.3785L25.8571 73.8156C26.0465 73.6266 26.0465 73.2859 25.8571 73.0969C25.668 72.9074 25.3274 72.9074 25.1383 73.0969L19.5375 78.6594C19.3485 78.8484 19.3485 79.1516 19.5375 79.3781V79.3785Z" fill="white"/>
<path id="Vector_85" d="M20.2188 73.3621C20.4078 73.5887 20.4078 73.9297 20.1809 74.1188L17.4941 76.3895C17.2672 76.5785 16.9266 76.5406 16.7371 76.3137C16.5481 76.0863 16.5481 75.7461 16.775 75.5567L19.4617 73.2863C19.6891 73.0969 20.0293 73.1348 20.2188 73.3621Z" fill="#F3F3F3"/>
<path id="Vector_86" d="M20.2566 73.3238C20.4836 73.5891 20.4457 73.9672 20.2187 74.1566L17.532 76.427C17.3051 76.6543 16.9265 76.6164 16.6996 76.3516C16.4722 76.0863 16.5101 75.7082 16.7371 75.5187L19.4242 73.2484C19.6508 73.0215 20.0297 73.0594 20.2562 73.3242L20.2566 73.3238ZM16.775 76.3137C16.9644 76.5406 17.2672 76.5406 17.4937 76.3895L20.1808 74.1187C20.3699 73.9297 20.4078 73.6266 20.2187 73.4C20.0293 73.1727 19.7265 73.1727 19.5 73.3242L16.8129 75.5945C16.5859 75.7836 16.5859 76.0871 16.775 76.3137Z" fill="white"/>
<path id="Vector_87" d="M21.7324 67.9125C21.9215 68.1777 21.8457 68.518 21.5809 68.6695L14.9965 73.0594C14.7316 73.2105 14.391 73.1348 14.2398 72.9078C14.0504 72.643 14.1262 72.3023 14.391 72.1508L20.9758 67.7613C21.2031 67.6102 21.5434 67.6855 21.7328 67.9125H21.7324Z" fill="#F3F3F3"/>
<path id="Vector_88" d="M21.7703 67.9125C21.9594 68.1777 21.8836 68.5558 21.6188 68.7453L15.0344 73.1348C14.7695 73.3242 14.391 73.248 14.202 72.9457C14.0125 72.6809 14.0887 72.3023 14.3531 72.1133L20.9379 67.7234C21.2027 67.5344 21.5813 67.6101 21.7703 67.9125ZM14.2777 72.8699C14.4289 73.0969 14.7316 73.1726 14.9586 73.0215L21.543 68.6316C21.7703 68.4805 21.8457 68.1777 21.6566 67.9129C21.5055 67.6855 21.2027 67.6101 20.9754 67.7613L14.391 72.1512C14.1641 72.3402 14.1262 72.643 14.2777 72.8699Z" fill="white"/>
<path id="Vector_89" d="M16.0938 67.118C16.2453 67.3828 16.1695 67.7234 15.9047 67.875L12.8395 69.6156C12.5746 69.7668 12.234 69.6535 12.0828 69.3887C11.9313 69.1238 12.007 68.7832 12.2719 68.6316L15.3371 66.891C15.602 66.7395 15.9426 66.8531 16.0941 67.118H16.0938Z" fill="#F3F3F3"/>
<path id="Vector_90" d="M16.132 67.0801C16.2832 67.3828 16.2074 67.7234 15.9426 67.875L12.8773 69.6156C12.6125 69.7668 12.234 69.6535 12.0828 69.3887C11.9313 69.0859 12.007 68.7453 12.2719 68.5938L15.3371 66.8531C15.602 66.7016 15.9805 66.8152 16.1316 67.0801H16.132ZM12.1203 69.3508C12.2719 69.6156 12.5746 69.6914 12.8016 69.5399L15.8668 67.7992C16.0938 67.6477 16.1695 67.3449 16.0563 67.118C15.9047 66.8531 15.602 66.7774 15.375 66.9289L12.3098 68.6695C12.0828 68.7828 12.0066 69.0859 12.1203 69.3508Z" fill="white"/>
<path id="Vector_91" d="M18.6293 62.0852C18.7426 62.3879 18.6293 62.6906 18.3266 62.8039L11.023 65.8313C10.7582 65.9449 10.4176 65.7938 10.3043 65.5285C10.1906 65.2258 10.3043 64.9231 10.607 64.8098L17.9105 61.7824C18.1754 61.6691 18.516 61.7824 18.6293 62.0852Z" fill="#F3F3F3"/>
<path id="Vector_92" d="M18.6672 62.0473C18.7805 62.35 18.6672 62.6906 18.3644 62.8418L11.0609 65.8691C10.9154 65.924 10.7541 65.9189 10.6123 65.8551C10.4704 65.7913 10.3597 65.6738 10.3043 65.5285C10.1906 65.2258 10.3043 64.8852 10.607 64.734L17.9105 61.7066C18.0561 61.6518 18.2174 61.6568 18.3592 61.7207C18.501 61.7845 18.6118 61.902 18.6672 62.0473ZM10.3797 65.4906C10.4934 65.7559 10.7961 65.8695 11.023 65.7934L18.3266 62.766C18.5914 62.6527 18.7051 62.35 18.5914 62.0852C18.4781 61.8203 18.1754 61.7066 17.948 61.7824L10.6445 64.8098C10.3797 64.923 10.2664 65.2258 10.3797 65.491V65.4906Z" fill="white"/>
<path id="Vector_93" d="M13.2938 60.193C13.4071 60.4957 13.2559 60.7984 12.9532 60.9117L9.62307 62.0094C9.35823 62.1227 9.0176 61.9336 8.94182 61.6687C8.82854 61.366 8.97971 61.0633 9.28245 60.95L12.6125 59.8523C12.8774 59.7391 13.1801 59.8902 13.2938 60.193Z" fill="#F3F3F3"/>
<path id="Vector_94" d="M13.3313 60.1551C13.4449 60.4578 13.2938 60.7984 12.9531 60.9121L9.62305 62.0094C9.32032 62.1227 8.97969 61.9336 8.86602 61.6309C8.75274 61.3281 8.90391 60.9875 9.24493 60.8742L12.5746 59.7766C12.8773 59.7012 13.218 59.8523 13.3316 60.1555L13.3313 60.1551ZM8.94219 61.5934C9.01797 61.8582 9.32071 62.0098 9.58555 61.934L12.9156 60.8363C13.1805 60.7609 13.2941 60.4582 13.2184 60.1934C13.1426 59.9285 12.8398 59.777 12.575 59.8527L9.24493 60.9504C8.98008 61.0637 8.86641 61.3285 8.94219 61.5934Z" fill="white"/>
<path id="Vector_95" d="M16.6996 55.6898C16.775 55.9926 16.5859 56.2953 16.2832 56.3332L8.52537 57.8469C8.22263 57.9227 7.95779 57.6953 7.8824 57.3926C7.80662 57.0898 7.99568 56.7871 8.29841 56.7492L16.0562 55.2355C16.359 55.198 16.6621 55.3871 16.6996 55.6898Z" fill="#F3F3F3"/>
<path id="Vector_96" d="M16.775 55.6898C16.8508 56.0305 16.6239 56.3332 16.3211 56.4086L8.5633 57.9223C8.26057 57.998 7.95783 57.7711 7.88244 57.4305C7.80666 57.0898 8.03362 56.7871 8.33635 56.7117L16.0942 55.198C16.3965 55.1223 16.6996 55.3492 16.775 55.6898ZM7.95783 57.393C7.99572 57.6574 8.26057 57.8469 8.52541 57.809L16.2832 56.2953C16.5481 56.2574 16.7371 55.9547 16.6617 55.6898C16.6238 55.425 16.359 55.2356 16.0938 55.2734L8.33635 56.7871C8.07151 56.8629 7.88244 57.1277 7.95783 57.3926V57.393Z" fill="white"/>
<path id="Vector_97" d="M11.8559 52.7762C11.8934 53.0785 11.7043 53.3438 11.4016 53.3816L7.92034 53.7977C7.61721 53.8355 7.35237 53.6086 7.31487 53.3055C7.27698 53.0031 7.46604 52.7383 7.76878 52.7L11.2504 52.284C11.5153 52.2461 11.818 52.473 11.8559 52.7762Z" fill="#F3F3F3"/>
<path id="Vector_98" d="M11.8938 52.7762C11.9313 53.1164 11.7043 53.4191 11.4016 53.457L7.92032 53.8734C7.6172 53.9113 7.31486 53.6844 7.27696 53.3438C7.23907 53.0031 7.46603 52.7004 7.76876 52.6625L11.2504 52.2461C11.5527 52.2082 11.8559 52.4356 11.8934 52.7758L11.8938 52.7762ZM7.31446 53.3059C7.35236 53.5707 7.61759 53.7981 7.88243 53.7598L11.3637 53.3438C11.6285 53.3059 11.818 53.041 11.7801 52.7762C11.7422 52.5109 11.4774 52.284 11.2125 52.3219L7.73087 52.7383C7.46603 52.7762 7.27696 53.041 7.31446 53.3059Z" fill="white"/>
<path id="Vector_99" d="M16.0938 49.1051C16.0938 49.4082 15.8672 49.6731 15.5641 49.6731H7.65548C7.35275 49.6731 7.12579 49.4082 7.12579 49.1055C7.12579 48.8027 7.35275 48.5375 7.65548 48.5375H15.5645C15.8672 48.5375 16.0945 48.8027 16.0945 49.1055L16.0938 49.1051Z" fill="#F3F3F3"/>
<path id="Vector_100" d="M16.132 49.1051C16.132 49.4461 15.8668 49.7105 15.5641 49.7105H7.65547C7.35273 49.7105 7.08789 49.4457 7.08789 49.1051C7.08789 48.7648 7.35273 48.4996 7.65547 48.4996H15.5645C15.8672 48.4996 16.132 48.7648 16.132 49.1051ZM7.16328 49.0676C7.16328 49.3324 7.39023 49.5973 7.65547 49.5973H15.5641C15.8289 49.5973 16.0562 49.3703 16.0562 49.0676C16.0562 48.8027 15.8289 48.5375 15.5641 48.5375H7.65547C7.39063 48.5754 7.16328 48.8027 7.16328 49.0676Z" fill="white"/>
<path id="Vector_101" d="M11.8937 45.2832C11.8554 45.5859 11.6285 45.8129 11.3257 45.8129L7.80622 45.548C7.50388 45.5102 7.27692 45.2453 7.31442 44.9426C7.35231 44.6398 7.57966 44.4129 7.88239 44.4129L11.4015 44.6777C11.6664 44.7156 11.8937 44.9805 11.8937 45.2832Z" fill="#E2E2E2"/>
<path id="Vector_102" d="M11.9312 45.2832C11.8933 45.6238 11.6285 45.8508 11.3258 45.8508L7.80624 45.5859C7.50389 45.548 7.23905 45.2832 7.27694 44.9426C7.31444 44.6023 7.57967 44.375 7.88241 44.375L11.4015 44.6398C11.7043 44.6777 11.9312 44.9805 11.9312 45.2832ZM7.31444 44.9426C7.27694 45.2074 7.50389 45.4727 7.76874 45.4727L11.2883 45.7375C11.5527 45.7375 11.7801 45.548 11.818 45.2453C11.8558 44.9805 11.6285 44.7156 11.3637 44.7156L7.84413 44.4508C7.57967 44.4508 7.35233 44.6773 7.31444 44.9426Z" fill="white"/>
<path id="Vector_103" d="M16.775 42.5207C16.6992 42.8234 16.4344 43.0129 16.1316 42.975L8.37422 41.3855C8.07148 41.3098 7.88203 41.0449 7.95781 40.7422C8.03359 40.4394 8.29844 40.25 8.60117 40.2883L16.359 41.8398C16.6238 41.9152 16.8129 42.218 16.775 42.5207Z" fill="#F3F3F3"/>
<path id="Vector_104" d="M16.8129 42.5207C16.7371 42.8613 16.4343 43.0508 16.1316 43.0129L8.37419 41.4613C8.07146 41.3856 7.8445 41.0828 7.92029 40.7426C7.99568 40.4016 8.29841 40.2125 8.60115 40.2504L16.359 41.802C16.6617 41.8777 16.8508 42.1805 16.8129 42.5207ZM7.99568 40.7422C7.95779 41.007 8.10896 41.2719 8.37419 41.3477L16.132 42.8992C16.3968 42.9371 16.6617 42.7859 16.7375 42.4828C16.775 42.218 16.6238 41.9531 16.3586 41.8773L8.60154 40.3262C8.2988 40.2883 8.07146 40.4773 7.99568 40.7422Z" fill="white"/>
<path id="Vector_105" d="M13.3696 37.9801C13.3522 38.0521 13.3208 38.1201 13.2771 38.18C13.2335 38.2399 13.1785 38.2907 13.1152 38.3293C13.0519 38.3679 12.9816 38.3937 12.9084 38.4052C12.8352 38.4166 12.7604 38.4136 12.6883 38.3961L9.28246 37.45C8.97972 37.3742 8.82855 37.0715 8.90394 36.7687C8.92131 36.6967 8.95272 36.6287 8.99637 36.5688C9.04002 36.5089 9.09505 36.4582 9.15833 36.4195C9.2216 36.3809 9.29187 36.3551 9.36511 36.3436C9.43836 36.3322 9.51314 36.3353 9.58519 36.3527L12.9911 37.2988C13.2938 37.3742 13.445 37.6773 13.3696 37.9801Z" fill="#F3F3F3"/>
<path id="Vector_106" d="M13.407 37.9801C13.3316 38.2824 12.991 38.5098 12.6883 38.3961L9.28242 37.45C8.97969 37.3742 8.79023 37.0336 8.86602 36.7313C8.9418 36.4281 9.28242 36.2012 9.58516 36.3148L12.991 37.2609C13.2938 37.3367 13.4832 37.6398 13.407 37.9801ZM8.97969 36.7305C8.90391 36.9957 9.05547 37.2984 9.32031 37.3738L12.7262 38.3199C12.991 38.3957 13.2559 38.2441 13.3316 37.9414C13.407 37.6766 13.2559 37.3738 12.991 37.2984L9.58516 36.3523C9.32031 36.3145 9.05547 36.4652 8.97969 36.7305Z" fill="white"/>
<path id="Vector_107" d="M18.7051 36.1637C18.5918 36.466 18.2508 36.5797 17.9863 36.466L10.6824 33.4387C10.4176 33.3254 10.2664 32.9848 10.3797 32.7199C10.4934 32.4172 10.834 32.3035 11.0988 32.4172L18.4024 35.4445C18.7051 35.5578 18.8188 35.8988 18.7051 36.1637Z" fill="#F3F3F3"/>
<path id="Vector_108" d="M18.743 36.2012C18.6876 36.3466 18.5768 36.4641 18.4348 36.5279C18.2929 36.5918 18.1315 36.5968 17.9859 36.5418L10.6824 33.5145C10.3797 33.4012 10.2664 33.0605 10.3797 32.7199C10.4351 32.5745 10.5459 32.457 10.6878 32.3932C10.8297 32.3293 10.9911 32.3243 11.1367 32.3793L18.4402 35.4066C18.743 35.5578 18.8562 35.8988 18.743 36.2012ZM10.4555 32.7578C10.3422 33.0227 10.4555 33.3254 10.7203 33.4387L18.0238 36.466C18.2887 36.5797 18.5535 36.4281 18.6672 36.1633C18.7805 35.8984 18.6672 35.5957 18.4023 35.4824L11.0988 32.4551C10.834 32.3793 10.5313 32.493 10.4555 32.7578Z" fill="white"/>
<path id="Vector_109" d="M16.2453 31.0547C16.0941 31.3195 15.7914 31.4332 15.5266 31.3195L12.3855 29.7305C12.1207 29.6168 12.007 29.2762 12.1586 28.9734C12.3098 28.7086 12.6125 28.5949 12.8773 28.7086L16.018 30.298C16.2832 30.4492 16.3969 30.7902 16.2453 31.0547Z" fill="#F3F3F3"/>
<path id="Vector_110" d="M16.2832 31.0926C16.1317 31.3953 15.791 31.509 15.4883 31.3574L12.3477 29.768C12.045 29.6168 11.9313 29.2762 12.0828 28.9734C12.234 28.6707 12.575 28.557 12.8774 28.7086L16.018 30.298C16.3211 30.4113 16.4344 30.7902 16.2832 31.0926ZM12.1961 29.0113C12.0828 29.2762 12.1586 29.5789 12.4235 29.6926L15.5641 31.282C15.7914 31.3953 16.0942 31.282 16.2453 31.0547C16.3586 30.7898 16.2832 30.4871 16.0184 30.3734L12.8391 28.7848C12.6121 28.6715 12.3094 28.7469 12.1957 29.0117L12.1961 29.0113Z" fill="white"/>
<path id="Vector_111" d="M21.8078 30.3355C21.6187 30.6008 21.316 30.6766 21.0511 30.4871L14.5043 26.1355C14.2398 25.984 14.2019 25.6434 14.3531 25.3785C14.5047 25.1137 14.8453 25.0379 15.1101 25.227L21.6945 29.6168C21.9215 29.7684 21.9972 30.109 21.8078 30.3355Z" fill="#F3F3F3"/>
<path id="Vector_112" d="M21.8457 30.3734C21.6566 30.6387 21.2781 30.7141 21.0137 30.5629L14.4668 26.173C14.2019 25.984 14.1262 25.6434 14.3152 25.341C14.5047 25.0758 14.8832 25 15.148 25.1516L21.6945 29.541C21.9973 29.7305 22.0352 30.1086 21.8457 30.3734ZM14.391 25.3785C14.2398 25.6055 14.2777 25.9461 14.5043 26.0973L21.0891 30.4875C21.316 30.6391 21.6187 30.5633 21.7703 30.3363C21.9215 30.109 21.8836 29.7684 21.657 29.6172L15.0719 25.2273C14.8449 25.0758 14.5426 25.1516 14.391 25.3785Z" fill="white"/>
<path id="Vector_113" d="M20.4078 24.8488C20.2188 25.0758 19.8781 25.1516 19.6512 24.9621L16.8887 22.8055C16.6617 22.616 16.6238 22.2754 16.8129 22.0484C17.002 21.8215 17.3426 21.7457 17.5699 21.9352L20.332 24.0918C20.5594 24.2812 20.5973 24.6215 20.4078 24.8488Z" fill="#F3F3F3"/>
<path id="Vector_114" d="M20.4457 24.8863C20.2567 25.1516 19.8781 25.1895 19.6133 25L16.8508 22.8434C16.586 22.6543 16.5481 22.2758 16.7375 22.0113C16.9266 21.7461 17.3051 21.7082 17.5695 21.8977L20.332 24.0543C20.5973 24.2438 20.6352 24.6219 20.4457 24.8871V24.8863ZM16.8129 22.0484C16.6238 22.2754 16.6617 22.5781 16.8887 22.7672L19.6512 24.9246C19.8781 25.0758 20.1809 25.0379 20.3699 24.8109C20.5594 24.584 20.5215 24.2813 20.2945 24.0922L17.532 21.9348C17.3051 21.7836 17.0016 21.8215 16.8129 22.0484Z" fill="white"/>
<path id="Vector_115" d="M26.0461 25.227C25.8196 25.4543 25.4785 25.4543 25.2895 25.227L19.6516 19.6645C19.4246 19.4375 19.4621 19.0969 19.6516 18.9074C19.8785 18.6809 20.2192 18.6809 20.4082 18.9074L26.009 24.4703C26.236 24.6594 26.236 25.0379 26.0469 25.2273L26.0461 25.227Z" fill="#F3F3F3"/>
<path id="Vector_116" d="M26.0461 25.2652C25.9351 25.3743 25.7857 25.4353 25.6301 25.4353C25.4745 25.4353 25.3251 25.3743 25.214 25.2652L19.6129 19.7019C19.5036 19.5909 19.4424 19.4413 19.4424 19.2855C19.4424 19.1297 19.5036 18.9802 19.6129 18.8691C19.7239 18.76 19.8734 18.6988 20.0291 18.6988C20.1848 18.6988 20.3343 18.76 20.4453 18.8691L26.0461 24.432C26.3109 24.659 26.3109 25.0375 26.0461 25.2644V25.2652ZM19.6894 18.9449C19.5 19.1344 19.5 19.475 19.6894 19.6637L25.2898 25.2266C25.4793 25.416 25.8195 25.416 26.0086 25.2266C26.198 25.0375 26.198 24.6969 26.0086 24.5078L20.4082 18.9074C20.2191 18.7184 19.916 18.718 19.6894 18.9449Z" fill="white"/>
<path id="Vector_117" d="M25.7059 19.5887C25.4789 19.7781 25.1383 19.7781 24.9488 19.5508L22.6402 16.902C22.4516 16.675 22.4891 16.3344 22.7164 16.1453C22.943 15.9559 23.284 15.9559 23.473 16.1828L25.7816 18.832C25.9707 19.0211 25.9328 19.3617 25.7059 19.5887Z" fill="#F3F3F3"/>
<path id="Vector_118" d="M25.7437 19.5887C25.4789 19.8156 25.1383 19.7781 24.9109 19.5508L22.6027 16.9019C22.3758 16.675 22.4137 16.2965 22.6785 16.0695C22.9433 15.8422 23.284 15.8801 23.5109 16.1074L25.8195 18.7559C26.0086 19.0211 26.0086 19.3996 25.7437 19.5887ZM22.7164 16.1453C22.4891 16.3344 22.4891 16.6371 22.6406 16.8641L24.9492 19.5129C25.1383 19.7023 25.441 19.7402 25.668 19.5508C25.8949 19.3617 25.8949 19.0586 25.7437 18.832L23.4351 16.1828C23.2461 15.9562 22.943 15.9562 22.7164 16.1453Z" fill="white"/>
<path id="Vector_119" d="M31.1551 21.027C30.8902 21.216 30.5496 21.1402 30.3981 20.8754L25.9707 14.3285C25.8192 14.0637 25.8949 13.723 26.1219 13.5719C26.3867 13.3828 26.7274 13.4586 26.8789 13.7234L31.2684 20.2699C31.4578 20.5348 31.382 20.8758 31.1551 21.027Z" fill="#F3F3F3"/>
<path id="Vector_120" d="M31.1551 21.0645C30.8902 21.2539 30.5117 21.1777 30.3223 20.9133L25.9328 14.3664C25.7437 14.1016 25.8195 13.7234 26.1219 13.5344C26.3867 13.3449 26.7652 13.4207 26.9547 13.6855L31.3441 20.232C31.5332 20.5348 31.4574 20.8754 31.1551 21.0645ZM26.1594 13.6098C25.9324 13.7609 25.8566 14.0637 26.0082 14.291L30.3977 20.8375C30.5492 21.0645 30.8519 21.1023 31.1164 20.9508C31.3437 20.7996 31.4195 20.4969 31.268 20.2699L26.8789 13.7609C26.7273 13.5344 26.3867 13.4582 26.1602 13.6098H26.1594Z" fill="white"/>
<path id="Vector_121" d="M31.9496 15.4262C31.6847 15.5773 31.3441 15.502 31.1929 15.2371L29.4519 12.1719C29.3008 11.907 29.414 11.5664 29.6793 11.4148C29.9441 11.2637 30.2847 11.3391 30.4359 11.6043L32.1765 14.6691C32.2902 14.934 32.214 15.2746 31.9496 15.4262Z" fill="#F3F3F3"/>
<path id="Vector_122" d="M31.9496 15.4641C31.6469 15.6152 31.3063 15.5398 31.1551 15.2746L29.4141 12.2098C29.2629 11.9445 29.3387 11.5664 29.6414 11.4148C29.9442 11.2637 30.2848 11.3391 30.436 11.6043L32.1766 14.6691C32.3281 14.934 32.252 15.2746 31.9496 15.4641ZM29.6793 11.4527C29.452 11.6039 29.3387 11.9066 29.4899 12.134L31.2309 15.1992C31.3821 15.4258 31.6848 15.502 31.9117 15.3883C32.1391 15.2371 32.2524 14.934 32.1012 14.707L30.3602 11.6418C30.2469 11.4152 29.9063 11.3012 29.6793 11.4527Z" fill="white"/>
<path id="Vector_123" d="M36.9824 17.9238C36.6801 18.0371 36.3769 17.9238 36.2637 17.659L33.1984 10.3551C33.0851 10.0902 33.2363 9.74961 33.5012 9.63593C33.8039 9.52265 34.1066 9.63593 34.2199 9.90078L37.2851 17.2043C37.3988 17.4691 37.2476 17.8098 36.9824 17.923V17.9238Z" fill="#F3F3F3"/>
<path id="Vector_124" d="M36.9824 17.9617C36.6801 18.075 36.3395 17.9617 36.1879 17.6586L33.1227 10.3555C33.0677 10.2099 33.0727 10.0485 33.1365 9.90656C33.2004 9.76466 33.3179 9.65385 33.4633 9.59844C33.766 9.48516 34.1067 9.59844 34.2582 9.90117L37.3231 17.2047C37.4367 17.4695 37.2852 17.8102 36.9824 17.9617ZM33.5391 9.67422C33.2742 9.7875 33.1606 10.0906 33.2742 10.3176L36.3391 17.6207C36.4524 17.8855 36.7551 17.9988 37.0199 17.8855C37.2848 17.7723 37.3989 17.4691 37.2848 17.2422L34.2199 9.93867C34.0684 9.67383 33.8035 9.56016 33.5387 9.67383L33.5391 9.67422Z" fill="white"/>
<path id="Vector_125" d="M38.8367 12.5504C38.534 12.6637 38.2313 12.5121 38.118 12.2098L37.0203 8.8793C36.907 8.61445 37.0961 8.27383 37.3609 8.19844C37.6258 8.12266 37.9664 8.23633 38.0797 8.53906L39.1774 11.8691C39.2906 12.134 39.1395 12.4371 38.8367 12.5504Z" fill="#F3F3F3"/>
<path id="Vector_126" d="M38.8746 12.5879C38.7291 12.6427 38.5678 12.6377 38.4259 12.5739C38.2841 12.51 38.1734 12.3926 38.118 12.2473L37.0203 8.91719C36.907 8.61445 37.0961 8.27422 37.3992 8.16055C37.5447 8.1057 37.7061 8.11075 37.8479 8.17459C37.9897 8.23843 38.1004 8.35586 38.1559 8.50117L39.2531 11.8313C39.3289 12.134 39.1773 12.4746 38.8746 12.5879ZM37.3988 8.23633C37.134 8.31172 36.9824 8.61445 37.0582 8.8793L38.1559 12.2098C38.2313 12.4746 38.534 12.5879 38.7992 12.5121C39.0641 12.4367 39.2152 12.134 39.1395 11.8691L38.0422 8.53867C38.0229 8.47443 37.9903 8.41498 37.9465 8.36417C37.9027 8.31336 37.8487 8.27235 37.788 8.24379C37.7274 8.21523 37.6613 8.19977 37.5943 8.19842C37.5272 8.19707 37.4606 8.20985 37.3988 8.23594V8.23633Z" fill="white"/>
<path id="Vector_127" d="M43.3024 15.9937C42.9996 16.0695 42.6969 15.8805 42.659 15.5773L41.0696 7.81992C40.9938 7.51719 41.2211 7.25234 41.5235 7.17656C41.8266 7.10078 42.1289 7.28984 42.1668 7.59297L43.7567 15.3508C43.7942 15.6152 43.6051 15.918 43.3024 15.9937Z" fill="#F3F3F3"/>
<path id="Vector_128" d="M43.3023 16.0316C42.9617 16.1074 42.659 15.8801 42.5832 15.5773L40.9938 7.81992C40.918 7.51719 41.1453 7.17656 41.4481 7.13867C41.7887 7.06289 42.0914 7.29023 42.1668 7.59297L43.7566 15.3508C43.832 15.6531 43.643 15.9562 43.3023 16.0316ZM41.5238 7.21445C41.2586 7.25234 41.0695 7.51719 41.1074 7.81992L42.6969 15.5777C42.7348 15.8422 43.0371 16.0316 43.3023 15.9559C43.5672 15.918 43.7563 15.6531 43.7184 15.3504L42.1289 7.59258C42.0535 7.32812 41.7891 7.17656 41.5238 7.21445Z" fill="white"/>
<path id="Vector_129" d="M46.1781 11.0742C45.8754 11.1121 45.6105 10.923 45.5348 10.6203L45.0809 7.13867C45.043 6.83594 45.2699 6.57109 45.573 6.5332C45.8754 6.49531 46.1402 6.68476 46.216 6.9875L46.6699 10.4687C46.7078 10.7715 46.4809 11.0363 46.1781 11.0742Z" fill="#F3F3F3"/>
<path id="Vector_130" d="M46.1781 11.1121C45.8375 11.15 45.5347 10.923 45.4968 10.6199L45.0429 7.13867C45.0051 6.83594 45.232 6.5332 45.5726 6.49531C45.9133 6.45781 46.216 6.68476 46.2539 6.9875L46.7078 10.4687C46.7457 10.7715 46.5187 11.0742 46.1781 11.1121ZM45.6105 6.57109C45.3457 6.60898 45.1183 6.87383 45.1562 7.13867L45.6105 10.6203C45.6484 10.8852 45.9133 11.0742 46.1781 11.0363C46.4429 10.9988 46.6703 10.7336 46.6324 10.4687L46.1781 6.9875C46.1402 6.72265 45.8754 6.5332 45.6105 6.57109Z" fill="white"/>
<path id="Vector_131" d="M50.2653 93.9855C75.0102 93.9855 95.0699 73.9258 95.0699 49.1809C95.0699 24.4359 75.0102 4.37617 50.2653 4.37617C25.5203 4.37617 5.46057 24.4359 5.46057 49.1809C5.46057 73.9258 25.5203 93.9855 50.2653 93.9855Z" fill="url(#paint2_linear_34_2)" fill-opacity="0.2"/>
</g>
<g id="Vector_132" filter="url(#filter1_d_34_2)">
<path d="M81.2953 20.7617L45.1563 43.9211H45.1184V43.9586L45.0805 43.9965L22.5273 81.1953L55.6766 54.5168L55.7145 54.4793V54.4414L81.2957 20.7621L81.2953 20.7617Z" fill="black" fill-opacity="0.05"/>
</g>
<path id="Vector_133" d="M80.6141 18.6047L44.8914 43.9965L55.4871 54.5164L80.6141 18.6047Z" fill="#CD151E"/>
<path id="Vector_134" d="M44.9293 43.9211L50.2653 49.1809L80.6141 18.6047L44.9293 43.9211Z" fill="#FA5153"/>
<path id="Vector_135" d="M44.9293 43.9211L55.525 54.4406L19.8023 79.8328L44.9293 43.9207V43.9211Z" fill="#ACACAC"/>
<path id="Vector_136" d="M19.8023 79.8328L50.2648 49.1809L44.9289 43.9207L19.8023 79.8328Z" fill="#EEEEEE"/>
</g>
</g>
<defs>
<filter id="filter0_d_34_2" x="0" y="0" width="100" height="100" filterUnits="userSpaceOnUse" color-interpolation-filters="sRGB">
<feFlood flood-opacity="0" result="BackgroundImageFix"/>
<feColorMatrix in="SourceAlpha" type="matrix" values="0 0 0 0 0 0 0 0 0 0 0 0 0 0 0 0 0 0 127 0" result="hardAlpha"/>
<feOffset dy="0.78125"/>
<feGaussianBlur stdDeviation="0.78125"/>
<feColorMatrix type="matrix" values="0 0 0 0 0 0 0 0 0 0 0 0 0 0 0 0 0 0 0.266007 0"/>
<feBlend mode="normal" in2="BackgroundImageFix" result="effect1_dropShadow_34_2"/>
<feBlend mode="normal" in="SourceGraphic" in2="effect1_dropShadow_34_2" result="shape"/>
</filter>
<filter id="filter1_d_34_2" x="20.9648" y="19.5898" width="61.8934" height="63.5586" filterUnits="userSpaceOnUse" color-interpolation-filters="sRGB">
<feFlood flood-opacity="0" result="BackgroundImageFix"/>
<feColorMatrix in="SourceAlpha" type="matrix" values="0 0 0 0 0 0 0 0 0 0 0 0 0 0 0 0 0 0 127 0" result="hardAlpha"/>
<feOffset dy="0.390625"/>
<feGaussianBlur stdDeviation="0.78125"/>
<feColorMatrix type="matrix" values="0 0 0 0 0 0 0 0 0 0 0 0 0 0 0 0 0 0 0.0509804 0"/>
<feBlend mode="normal" in2="BackgroundImageFix" result="effect1_dropShadow_34_2"/>
<feBlend mode="normal" in="SourceGraphic" in2="effect1_dropShadow_34_2" result="shape"/>
</filter>
<linearGradient id="paint0_linear_34_2" x1="4845.31" y1="9688.28" x2="4845.31" y2="0.78125" gradientUnits="userSpaceOnUse">
<stop offset="0.25" stop-color="#DBDBDA"/>
<stop offset="1" stop-color="white"/>
</linearGradient>
<radialGradient id="paint1_radial_34_2" cx="0" cy="0" r="1" gradientUnits="userSpaceOnUse" gradientTransform="translate(5115.17 3500.7) scale(5469.04)">
<stop stop-color="#2ABCE1"/>
<stop offset="0.11363" stop-color="#2ABBE1"/>
<stop offset="1" stop-color="#3375F8"/>
</radialGradient>
<linearGradient id="paint2_linear_34_2" x1="4400.8" y1="3203.7" x2="2309.59" y2="6955.55" gradientUnits="userSpaceOnUse">
<stop stop-opacity="0"/>
<stop offset="1"/>
</linearGradient>
<clipPath id="clip0_34_2">
<rect width="100" height="100" fill="white"/>
</clipPath>
</defs>
</svg>
