<?xml version="1.0" encoding="UTF-8" standalone="no"?>
<svg
   width="440"
   height="380"
   version="1.1"
   id="svg55"
   xmlns:xlink="http://www.w3.org/1999/xlink"
   xmlns="http://www.w3.org/2000/svg"
   xmlns:svg="http://www.w3.org/2000/svg">
  <defs
     id="defs1">
    <rect
       id="a"
       width="350"
       height="346"
       rx="8"
       x="0"
       y="0" />
    <path
       id="c"
       d="M 0,0.048 H 349.781 V 296 H 0 Z" />
    <path
       id="e"
       d="M 0,0.048 H 157.825 V 219.892 H 0 Z" />
  </defs>
  <g
     fill="none"
     fill-rule="evenodd"
     id="g55">
    <mask
       id="b"
       fill="#ffffff">
      <use
         xlink:href="#a"
         id="use1" />
    </mask>
    <use
       fill="#e8eaf6"
       fill-rule="nonzero"
       xlink:href="#a"
       id="use2" />
    <g
       mask="url(#b)"
       id="g5">
      <path
         fill="#242a45"
         d="m -3.53,0.197 h 547 v 59 h -547 z"
         id="path2" />
      <g
         transform="translate(22.47,14.197)"
         fill="#ffffff"
         id="g4">
        <circle
           cx="16"
           cy="16"
           r="16"
           opacity="0.245"
           id="circle2" />
        <g
           transform="translate(47,6)"
           id="g3">
          <rect
             width="120"
             height="6"
             opacity="0.75"
             rx="3"
             id="rect2"
             x="0"
             y="0" />
          <rect
             width="64"
             height="6"
             y="14"
             opacity="0.25"
             rx="3"
             id="rect3"
             x="0" />
        </g>
      </g>
    </g>
    <rect
       width="237"
       height="34"
       x="27"
       y="85"
       fill="#ffffff"
       rx="8"
       id="rect5" />
    <rect
       width="237"
       height="34"
       x="27"
       y="133"
       fill="#ffffff"
       rx="8"
       id="rect6" />
    <rect
       width="237"
       height="34"
       x="27"
       y="181"
       fill="#ffffff"
       rx="8"
       id="rect7" />
    <rect
       width="237"
       height="34"
       x="27"
       y="229"
       fill="#ffffff"
       rx="8"
       id="rect8" />
    <rect
       width="237"
       height="34"
       x="27"
       y="277"
       fill="#ffffff"
       rx="8"
       id="rect9" />
    <g
       transform="matrix(-1,0,0,1,440,83)"
       id="g54">
      <mask
         id="d"
         fill="#ffffff">
        <use
           xlink:href="#c"
           id="use9" />
      </mask>
      <path
         fill="#3a499e"
         d="m 348.707,250.34 c -0.67,2.018 -1.715,3.998 -3.174,5.935 -25.202,33.474 -119.376,44.632 -212.224,37.814 -48.476,-3.562 -82.67,-24.526 -104.281,-43.75 A 175.95,175.95 0 0 1 15.668,237.117 C 10.999,231.972 7.355,226.257 4.758,220.222 -2.889,202.444 -1.416,181.906 9.881,165.061 19.458,150.785 32.603,140.237 39.394,128.518 52.326,106.2 -16.043,49.782 28.448,14.138 44.152,1.554 77.608,-1.35 114.11,0.602 c 44.428,2.378 93.365,11.955 120.284,20.045 55.712,16.737 90.58,40.98 98.539,68.256 7.958,27.276 -13.311,39.618 -31.88,65.654 -17.495,24.526 58.553,62.997 47.654,95.783"
         mask="url(#d)"
         id="path9" />
      <g
         transform="translate(2,2)"
         id="g12">
        <mask
           id="f"
           fill="#ffffff">
          <use
             xlink:href="#e"
             id="use11" />
        </mask>
        <path
           fill="#ffffff"
           d="M 157.066,52.186 C 148.954,92.345 11.06,153.876 4.43,219.892 -2.688,202.14 -1.317,181.634 9.2,164.814 18.114,150.559 30.35,140.027 36.671,128.325 48.71,106.043 -14.934,49.707 26.481,14.117 41.1,1.552 72.242,-1.348 106.221,0.602 c 10.344,2.364 58.164,15.331 50.845,51.584"
           mask="url(#f)"
           opacity="0.152"
           id="path12" />
      </g>
      <path
         fill="#000000"
         d="m 351.82,243 c 0.985,7.866 -2.34,13.336 -3.64,15.227 C 325.751,290.899 203.686,301.79 121.05,295.135 77.904,291.659 42.545,269.42 21,244.915 Z"
         opacity="0.149"
         id="path13" />
      <path
         fill="#000000"
         d="m 73.627,246.812 c 0,0 -10.077,0.61 -9.922,3.66 0.155,3.05 6.511,9.758 6.511,9.758 L 60.707,256.825 32,255.732 l 3.1,2.669 c 0,0 23.127,1.067 24.16,1.88 1.034,0.813 14.264,10.776 16.537,11.182 2.274,0.407 146.688,0.225 146.688,0.225 0,0 14.858,0.589 17.339,-3.986 2.48,-4.574 11.472,-4.27 13.953,-0.305 2.48,3.965 2.136,18.603 2.136,18.603 0,0 6.793,-1.773 7.166,-1.931 C 286.644,274.106 313,243 313,243 Z"
         opacity="0.128"
         id="path14" />
      <path
         fill="#162f44"
         d="m 43,207.695 14.45,49.163 c 0,0 2.056,2.444 3.55,0.18 L 51.286,207 Z M 23.134,206 16,239.138 19.397,243 29,206.954 Z"
         id="path15" />
      <path
         fill="#ffffff"
         d="M 212.329,270 H 83.67 c -4.789,0 -8.671,-3.908 -8.671,-8.73 V 40.73 c 0,-4.822 3.882,-8.73 8.671,-8.73 h 128.66 c 4.789,0 8.671,3.908 8.671,8.73 v 220.54 c 0,4.822 -3.882,8.73 -8.671,8.73"
         id="path21" />
      <path
         fill="#e4dcf1"
         d="m 213,63.29 v 88.42 c 0,1.818 -1.456,3.29 -3.253,3.29 H 86.253 C 84.456,155 83,153.528 83,151.71 V 63.29 C 83,61.472 84.456,60 86.253,60 h 123.494 c 1.797,0 3.253,1.472 3.253,3.29"
         id="path22" />
      <path
         fill="#f4f2f9"
         d="M 209.833,33.013 77,219.239 v 42.244 c 0,4.704 3.7,8.517 8.263,8.517 h 120.164 c 5.287,0 9.573,-4.418 9.573,-9.869 V 36.827 c 0,-2.929 -2.33,-3.956 -5.167,-3.814"
         opacity="0.184"
         id="path26" />
      <path
         fill="#ffdedd"
         d="M 109.649,181 H 87.35 c -1.298,0 -2.351,-1.072 -2.351,-2.394 v -3.212 c 0,-1.322 1.053,-2.394 2.351,-2.394 h 22.298 c 1.298,0 2.351,1.072 2.351,2.394 v 3.212 c 0,1.322 -1.053,2.394 -2.351,2.394 m 32,0 H 119.35 c -1.298,0 -2.351,-1.072 -2.351,-2.394 v -3.212 c 0,-1.322 1.053,-2.394 2.351,-2.394 h 22.298 c 1.298,0 2.351,1.072 2.351,2.394 v 3.212 c 0,1.322 -1.053,2.394 -2.351,2.394 m 34,0 H 153.35 c -1.298,0 -2.351,-1.072 -2.351,-2.394 v -3.212 c 0,-1.322 1.053,-2.394 2.351,-2.394 h 22.297 c 1.299,0 2.352,1.072 2.352,2.394 v 3.212 c 0,1.322 -1.053,2.394 -2.352,2.394 m 32,0 H 185.35 c -1.298,0 -2.351,-1.072 -2.351,-2.394 v -3.212 c 0,-1.322 1.053,-2.394 2.351,-2.394 h 22.298 c 1.298,0 2.351,1.072 2.351,2.394 v 3.212 c 0,1.322 -1.053,2.394 -2.351,2.394"
         id="path29" />
      <path
         fill="#f4f2f9"
         d="M 205.453,200 H 87.547 C 86.14,200 85,198.92 85,197.59 v -3.18 c 0,-1.33 1.14,-2.41 2.547,-2.41 h 117.906 c 1.407,0 2.547,1.08 2.547,2.41 v 3.18 c 0,1.33 -1.14,2.41 -2.547,2.41 M 87.547,216 C 86.14,216 85,214.92 85,213.59 v -3.18 c 0,-1.33 1.14,-2.41 2.547,-2.41 h 117.906 c 1.407,0 2.547,1.08 2.547,2.41 v 3.18 c 0,1.33 -1.14,2.41 -2.547,2.41 z m 117.906,16 H 87.547 C 86.14,232 85,230.92 85,229.59 v -3.18 c 0,-1.33 1.14,-2.41 2.547,-2.41 h 117.906 c 1.407,0 2.547,1.08 2.547,2.41 v 3.18 c 0,1.33 -1.14,2.41 -2.547,2.41 m 0,13 H 87.547 C 86.14,245 85,243.92 85,242.59 v -3.18 c 0,-1.33 1.14,-2.41 2.547,-2.41 h 117.906 c 1.407,0 2.547,1.08 2.547,2.41 v 3.18 c 0,1.33 -1.14,2.41 -2.547,2.41"
         id="path30" />
      <path
         fill="#e4dcf1"
         d="M 101.648,56 H 84.352 C 83.053,56 82,54.657 82,53 c 0,-1.657 1.053,-3 2.352,-3 h 17.296 c 1.299,0 2.352,1.343 2.352,3 0,1.657 -1.053,3 -2.352,3"
         id="path32" />
      <path
         fill="#224a7d"
         d="m 66,199 c 0,3.866 -12.984,7 -29,7 -16.016,0 -29,-3.134 -29,-7 0,-3.866 12.984,-7 29,-7 16.016,0 29,3.134 29,7"
         id="path38" />
      <path
         fill="#6397d9"
         d="m 66,198 c 0,3.866 -12.984,7 -29,7 -16.016,0 -29,-3.134 -29,-7 0,-3.866 12.984,-7 29,-7 16.016,0 29,3.134 29,7"
         id="path39" />
      <path
         fill="#162f44"
         d="m 45,194 c 0,1.657 -5.373,3 -12,3 -6.627,0 -12,-1.343 -12,-3 0,-1.657 5.373,-3 12,-3 6.627,0 12,1.343 12,3 m -37,3 v 3.986 c 0,0 0.07,2.464 5,4.014 l -1.179,-4.318 c 0,0 -3.463,-1.495 -3.821,-3.682"
         id="path40" />
      <path
         fill="#8cc5f2"
         d="m 65.994,197 v 4.085 c 0,0 0.39,2.043 -4.994,3.915 l 1.652,-4.766 c 0,0 2.86,-1.277 3.342,-3.234"
         id="path41" />
      <path
         fill="#fc516b"
         d="m 47,184.038 -1.968,7.69 C 44.544,193.642 42.609,195 40.379,195 h -4.233 c -1.585,0 -3.025,-0.685 -3.9,-1.772 A 4.02,4.02 0 0 1 31.554,191.95 L 29.848,186.637 29,184 Z"
         id="path42" />
      <path
         fill="#9b293f"
         d="m 47,183 c 0,0.552 -4.03,1 -9,1 -4.97,0 -9,-0.448 -9,-1 0,-0.552 4.03,-1 9,-1 4.97,0 9,0.448 9,1"
         id="path43" />
      <path
         fill="#f995a9"
         d="m 34.594,193.657 c 0.354,0.137 0.688,0.253 1,0.343 l -2.11,-0.324 a 4.41,4.41 0 0 1 -0.657,-1.35 l -1.616,-5.608 C 31.13,186.448 31,186.018 31,186 c 0,0 4.215,1.242 8,0.818 -1.231,0.164 -4.31,0.412 -6.168,0.32 a 0.724,0.724 0 0 0 -0.764,0.815 c 0.234,1.657 0.905,5.074 2.526,5.704"
         id="path44" />
      <path
         fill="#51a595"
         d="m 39,180.901 -0.679,3.087 -0.494,0.012 c 0,0 -0.028,-3.099 -3.674,-5 -3.65,-1.9 -3.127,-9 -3.127,-9 l 0.003,0.009 c 0.088,0.183 1.488,3.1 2.549,3.29 1.094,0.202 1.773,1.95 1.773,1.95 0,0 0.522,0.75 1.147,0.6 0.626,-0.15 1.251,1.5 1.251,1.5 l 0.207,1.752 z"
         id="path45" />
      <path
         fill="#4ec9b4"
         d="m 34.007,186.987 c 0,0 -0.7,-23.436 11.6,-29.987 0,0 3.501,1.352 -0.6,6.967 -4.1,5.615 -0.799,9.67 -2.6,11.127 -1.8,1.455 -4.4,2.391 -4,4.263 0.4,1.872 -0.1,3.744 -0.9,3.952 -0.8,0.207 -2.6,1.312 -2.88,3.691 z"
         id="path46" />
      <path
         fill="#41877a"
         d="m 34,182.8 -0.04,1.188 -0.538,0.012 c 0,0 -0.03,-3.099 -3.994,-5 -3.968,-1.9 -3.4,-9 -3.4,-9 l 0.004,0.009 0.336,1.068 c 0,6.45 3.723,7.787 5.212,8.648 1.489,0.861 2.42,3.075 2.42,3.075"
         id="path47" />
      <path
         fill="#cec3e2"
         d="m 112,96 c 0,10.492 -8.048,19 -17.973,19 -4.156,0 -7.981,-1.491 -11.027,-3.996 V 80.996 C 86.046,78.49 89.87,77 94.027,77 103.952,77 112,85.508 112,96"
         id="path52" />
      <path
         fill="#c3b8d8"
         d="m 112,96.5 c 0,10.216 -7.493,18.5 -16.734,18.5 -3.87,0 -7.43,-1.452 -10.266,-3.89 V 81.89 C 87.835,79.453 91.397,78 95.266,78 104.507,78 112,86.284 112,96.5"
         id="path53" />
    </g>
  </g>
</svg>
